<svg
    width="108"
    height="18"
    viewBox="0 0 108 18"
    fill="#fff"
    xmlns="http://www.w3.org/2000/svg"
>
    <path d="M37.2422 0.951172H40.4613V14.2839H48.6236V17.1739H37.2422V0.951172Z"></path>
    <path
        d="M57.2898 0.951172H63.0684L68.4676 17.1739H65.1466L63.8034 13.143H56.4781L55.1349 17.1739H51.8906L57.2898 0.951172ZM62.8662 10.3562L60.7879 4.12012H59.4699L57.3916 10.3562H62.8662Z"></path>
    <path
        d="M72.3867 0.951172H77.9128L83.743 13.5991H84.1489V0.951172H87.3179V17.1739H81.7917L75.9364 4.526H75.5557V17.1739H72.3867V0.951172Z"></path>
    <path
        d="M96.618 0.950928H102.397L107.796 17.1736H104.475L103.132 13.1427H95.8062L94.463 17.1736H91.2188L96.618 0.950928ZM102.194 10.3559L100.116 4.11987H98.798L96.7198 10.3559H102.194Z"></path>
    <path
        d="M0.00139478 12.1803H3.29587C3.47301 13.6002 4.21084 14.6644 6.78143 14.6644H7.19986C9.6491 14.6644 10.3298 13.8024 10.3298 12.6364C10.3298 11.5722 9.48033 10.812 8.28918 10.6851L4.84129 10.1648C1.39757 9.6934 0.430987 7.46873 0.430987 5.47558C0.430987 2.30664 2.46458 0.571533 6.66705 0.571533C10.8695 0.571533 12.8766 2.3708 13.0287 5.91912H9.75928C9.53472 4.42671 8.94892 3.46012 6.67961 3.46012H6.40065C4.38659 3.46012 3.46045 4.19518 3.46045 5.38632C3.46045 6.57746 4.34753 7.2874 5.46336 7.41433L9.04934 7.93458C12.2964 8.33767 13.3843 10.2946 13.3843 12.5987C13.3843 15.7928 11.6102 17.5544 6.71727 17.5544C2.25536 17.5544 0.076713 15.73 0 12.1803H0.00139478Z"></path>
    <path
        d="M18.7972 2.84224C20.2869 1.32053 22.2981 0.571533 24.852 0.571533C27.4058 0.571533 29.4171 1.34285 30.883 2.86455C32.3726 4.38626 33.1063 6.45193 33.1063 9.08528C33.1063 11.7186 32.3726 13.7857 30.9067 15.306C29.4408 16.804 27.4295 17.5544 24.852 17.5544C22.2744 17.5544 20.2631 16.8054 18.7972 15.306C17.3313 13.7843 16.5977 11.7186 16.5977 9.08528C16.5977 6.45193 17.3313 4.36255 18.7972 2.84224ZM20.0721 10.1718C20.0721 13.02 21.9522 14.6728 24.8506 14.6728C27.7489 14.6728 29.6068 12.9335 29.6068 10.1718V7.93179C29.6068 5.08365 27.7489 3.45315 24.8506 3.45315C21.9522 3.45315 20.0721 5.21476 20.0721 7.93179V10.1718Z"></path>
</svg>